<svg xmlns="http://www.w3.org/2000/svg" viewBox="0 0 111.53 130.43"><defs><style>.cls-1{fill:#231f20;}</style></defs><g id="Layer_2" data-name="Layer 2"><g id="Layer_1-2" data-name="Layer 1"><path class="cls-1" d="M29.53,58.54q-14.07,0-21.8-7.66T0,29.31Q0,15.57,7.68,7.79T28.84,0Q42.72,0,50.55,7.62t7.82,21q0,14.24-7.53,22.06T29.53,58.54Zm-.39-47.13A10.57,10.57,0,0,0,20,16.2Q16.63,21,16.64,29.31T20,42.39a10.61,10.61,0,0,0,9.16,4.74,10.71,10.71,0,0,0,9.25-4.74q3.34-4.76,3.35-13.08T38.39,16.15A10.71,10.71,0,0,0,29.14,11.41Z"/><path class="cls-1" d="M97.94,6V43.3c0,2,.89,3,2.66,3a17.18,17.18,0,0,0,2.26-.21,17.44,17.44,0,0,1,2.27-.21c4.26,0,6.4,1.81,6.4,5.42a5.85,5.85,0,0,1-1.87,4.53,7,7,0,0,1-4.93,1.71,4.38,4.38,0,0,1-1-.08l-6-.59c-1.71-.16-4.7-.25-9-.25q-5.91,0-7.38.17l-5.91.67a6,6,0,0,1-1.08.08A8.24,8.24,0,0,1,69,55.83a5.5,5.5,0,0,1-2.06-4.45,5.09,5.09,0,0,1,1.67-4A6.39,6.39,0,0,1,73,45.88a26.27,26.27,0,0,1,2.71.21,25.93,25.93,0,0,0,2.7.21c1.58,0,2.56-.89,3-2.67.06-.38.09-1.83.09-4.33v-23q0-3.91-3.34-3.91c-.4,0-1.12.05-2.17.16a16.46,16.46,0,0,1-3.34.42q-5.72,0-5.71-5.58A5.61,5.61,0,0,1,69,2.87a8.45,8.45,0,0,1,5.52-1.7,47.66,47.66,0,0,1,5.07.41A45.37,45.37,0,0,0,84.65,2a39.49,39.49,0,0,0,5.71-.58,20.37,20.37,0,0,1,3.25-.25c1.77,0,3,.41,3.64,1.25A6.66,6.66,0,0,1,97.94,6Z"/><path class="cls-1" d="M38.54,75.57v39c0,2.08.84,3.13,2.51,3.13a15.82,15.82,0,0,0,2.14-.22,14.33,14.33,0,0,1,2.14-.22c4,0,6,1.89,6,5.65a6.44,6.44,0,0,1-1.77,4.74A6.22,6.22,0,0,1,45,129.38a3.87,3.87,0,0,1-.93-.08l-5.68-.61c-1.61-.18-4.43-.26-8.46-.26q-5.58,0-7,.17l-5.58.7a5.38,5.38,0,0,1-1,.08,7.26,7.26,0,0,1-5.11-1.78,6,6,0,0,1-2-4.65,5.61,5.61,0,0,1,1.58-4.17A5.68,5.68,0,0,1,15,117.21a21.29,21.29,0,0,1,2.55.22,24,24,0,0,0,2.56.22q2.24,0,2.79-2.79c.06-.4.09-1.91.09-4.52v-24q0-4.09-3.16-4.09a20.37,20.37,0,0,0-2,.18,14.27,14.27,0,0,1-3.16.43q-5.4,0-5.4-5.82a6.09,6.09,0,0,1,2-4.74,7.39,7.39,0,0,1,5.2-1.78A39,39,0,0,1,21.2,71a39,39,0,0,0,4.79.43,33.41,33.41,0,0,0,5.39-.6,17.11,17.11,0,0,1,3.07-.26c1.67,0,2.82.43,3.44,1.3A7.63,7.63,0,0,1,38.54,75.57Z"/><path class="cls-1" d="M84.29,130.43q-13.31,0-20.6-8t-7.3-22.52q0-14.34,7.25-22.47t20-8.13q13.11,0,20.5,8t7.4,21.95q0,14.88-7.12,23T84.29,130.43Zm-.38-49.21a9.76,9.76,0,0,0-8.64,5q-3.17,5-3.16,13.69t3.16,13.65a10.09,10.09,0,0,0,17.38,0q3.16-4.95,3.16-13.65T92.65,86.17A9.86,9.86,0,0,0,83.91,81.22Z"/></g></g></svg>