<?xml version="1.0" encoding="utf-8"?>
<!-- Generator: Adobe Illustrator 25.0.1, SVG Export Plug-In . SVG Version: 6.00 Build 0)  -->
<svg version="1.1" id="Layer_1" xmlns="http://www.w3.org/2000/svg" xmlns:xlink="http://www.w3.org/1999/xlink" x="0px" y="0px"
	 viewBox="0 0 111.5 130.4" style="enable-background:new 0 0 111.5 130.4;" xml:space="preserve">
<style type="text/css">
	.st0{stroke:#000000;stroke-width:6;stroke-miterlimit:10;}
	.st1{fill:#FFFFFF;}
</style>
<circle class="st0" cx="55.1" cy="54.7" r="48.4"/>
<g id="Layer_2_1_">
	<g id="Layer_1-2">
		<path class="st1" d="M41.8,51.3c-4.8,0-8.4-1.3-11.1-3.9c-2.6-2.6-3.9-6.2-3.9-10.9c0-4.6,1.3-8.3,3.9-10.9s6.2-4,10.7-4
			c4.7,0,8.4,1.3,11,3.9s4,6.1,4,10.7c0,4.8-1.3,8.6-3.8,11.2C50,49.9,46.4,51.3,41.8,51.3z M41.6,27.4c-1.9-0.1-3.6,0.9-4.6,2.4
			c-1.1,1.6-1.7,3.8-1.7,6.7s0.6,5,1.7,6.6c1,1.6,2.8,2.5,4.6,2.4c1.9,0.1,3.7-0.8,4.7-2.4c1.1-1.6,1.7-3.8,1.7-6.6s-0.6-5-1.7-6.7
			C45.2,28.2,43.4,27.3,41.6,27.4z"/>
		<path class="st1" d="M76.5,24.6v18.9c0,1,0.5,1.5,1.4,1.5c0.4,0,0.8,0,1.1-0.1c0.4-0.1,0.8-0.1,1.2-0.1c2.2,0,3.2,0.9,3.2,2.8
			c0,0.9-0.3,1.7-0.9,2.3c-0.7,0.6-1.6,0.9-2.5,0.9c-0.2,0-0.3,0-0.5,0l-3-0.3c-0.9-0.1-2.4-0.1-4.6-0.1c-2,0-3.2,0-3.7,0.1l-3,0.3
			c-0.2,0-0.4,0-0.5,0c-1,0-1.9-0.3-2.7-0.9c-0.7-0.5-1.1-1.4-1-2.3c0-0.8,0.3-1.5,0.8-2c0.6-0.5,1.4-0.8,2.2-0.8
			c0.5,0,0.9,0,1.4,0.1c0.5,0.1,0.9,0.1,1.4,0.1c0.8,0,1.3-0.5,1.5-1.4c0-0.2,0-0.9,0-2.2V29.8c0-1.3-0.6-2-1.7-2
			c-0.2,0-0.6,0-1.1,0.1c-0.6,0.1-1.1,0.2-1.7,0.2c-1.9,0-2.9-0.9-2.9-2.8c0-0.9,0.4-1.7,1-2.3c0.8-0.6,1.8-0.9,2.8-0.9
			c0.9,0,1.7,0.1,2.6,0.2c0.9,0.1,1.7,0.2,2.6,0.2c1,0,1.9-0.1,2.9-0.3c0.5-0.1,1.1-0.1,1.6-0.1c0.9,0,1.5,0.2,1.8,0.6
			C76.4,23.4,76.5,24,76.5,24.6z"/>
		<path class="st1" d="M46.3,59.9v19.8c0,1.1,0.4,1.6,1.3,1.6c0.4,0,0.7,0,1.1-0.1c0.4-0.1,0.7-0.1,1.1-0.1c2,0,3,1,3,2.9
			c0,0.9-0.3,1.8-0.9,2.4c-0.6,0.6-1.5,0.9-2.3,0.9c-0.2,0-0.3,0-0.5,0l-2.9-0.3c-0.8-0.1-2.2-0.1-4.3-0.1c-1.9,0-3.1,0-3.6,0.1
			l-2.8,0.4c-0.2,0-0.3,0-0.5,0c-0.9,0-1.9-0.3-2.6-0.9c-0.7-0.6-1-1.5-1-2.4c0-0.8,0.3-1.6,0.8-2.1c0.6-0.5,1.3-0.8,2.1-0.8
			c0.4,0,0.9,0,1.3,0.1c0.4,0.1,0.9,0.1,1.3,0.1c0.8,0,1.2-0.5,1.4-1.4c0-0.2,0-1,0-2.3V65.4c0-1.4-0.5-2.1-1.6-2.1
			c-0.3,0-0.7,0-1,0.1c-0.5,0.1-1.1,0.2-1.6,0.2c-1.8,0-2.7-1-2.7-3c0-0.9,0.3-1.8,1-2.4c0.7-0.6,1.7-1,2.6-0.9
			c0.8,0,1.6,0.1,2.4,0.2c0.8,0.1,1.6,0.2,2.4,0.2c0.9,0,1.8-0.1,2.7-0.3c0.5-0.1,1-0.1,1.6-0.1c0.8,0,1.4,0.2,1.7,0.7
			C46.3,58.6,46.4,59.3,46.3,59.9z"/>
		<path class="st1" d="M69.6,87.8c-4.5,0-8-1.4-10.5-4.1c-2.5-2.7-3.7-6.5-3.7-11.4c0-4.9,1.2-8.7,3.7-11.4
			c2.5-2.8,5.8-4.1,10.2-4.1c4.4,0,7.9,1.4,10.4,4.1c2.5,2.7,3.8,6.4,3.8,11.1c0,5-1.2,8.9-3.6,11.7C77.4,86.4,74,87.8,69.6,87.8z
			 M69.4,62.8c-1.8,0-3.5,1-4.4,2.5c-1.1,1.7-1.6,4-1.6,6.9s0.5,5.2,1.6,6.9c1.4,2.4,4.6,3.2,7,1.8c0.7-0.4,1.4-1.1,1.8-1.8
			c1.1-1.7,1.6-4,1.6-6.9c0-2.9-0.5-5.3-1.6-7C72.9,63.7,71.2,62.8,69.4,62.8z"/>
	</g>
</g>
</svg>
