<svg xmlns="http://www.w3.org/2000/svg" viewBox="0 0 256.71 250.4"><defs><style>.cls-1{fill:#fff;stroke:#231f20;stroke-miterlimit:10;}</style></defs><g id="Layer_2" data-name="Layer 2"><g id="Layer_1-2" data-name="Layer 1"><path class="cls-1" d="M128.35.5A127.87,127.87,0,0,0,87.94,249.68c6.4,1.17,8.73-2.78,8.73-6.16,0-3-.11-11.08-.17-21.75-35.57,7.73-43.07-17.14-43.07-17.14-5.82-14.77-14.2-18.7-14.2-18.7-11.61-7.93.88-7.77.88-7.77,12.83.9,19.58,13.17,19.58,13.17C71.1,210.87,89.62,205.23,96.9,202c1.16-8.27,4.47-13.9,8.12-17.1-28.39-3.22-58.24-14.19-58.24-63.19A49.42,49.42,0,0,1,59.94,87.36c-1.31-3.23-5.7-16.23,1.26-33.83,0,0,10.73-3.44,35.16,13.1a121.26,121.26,0,0,1,64,0c24.41-16.54,35.13-13.1,35.13-13.1,7,17.6,2.59,30.6,1.27,33.83a49.36,49.36,0,0,1,13.14,34.31c0,49.12-29.89,59.93-58.37,63.09,4.59,4,8.68,11.75,8.68,23.68,0,17.09-.16,30.88-.16,35.08,0,3.41,2.3,7.39,8.79,6.14A127.87,127.87,0,0,0,128.35.5Z"/></g></g></svg>